# ProBuilder 5.0.7
# https://unity3d.com/unity/features/worldbuilding/probuilder
# 10/3/2024 8:51:12 AM

mtllib ./petal.mtl
o petal

g petal_probuilder
v -0.5000015 0.6497886 1.095938
v -0.7426003 0.2921516 0.712358
v -0.492673 0.2871612 0.7160535
v -0.2427466 0.2844313 0.7216759
v -0.9999725 0.01294011 0.872611
v -0.5073486 -0.423961 0.9141281
v -0.0002651325 -0.002500504 0.8912468
v -1 0 1
v -1 0 0.9436104
v -0.7500015 0.2550002 0.7839735
v -0.750002 0.1901401 0.8537028
v -0.5000015 0.6100892 1.135985
v -0.500002 0.5955577 1.14634
v -0.2500019 0.1901401 0.8537028
v -0.500002 0.1900805 0.8536601
v 0 0 1
v -0.500001 -0.4304478 1
v -1.847744E-07 0 0.9436104
v -0.2500015 0.2550002 0.7839735
v -0.5000013 -0.4304478 0.9436104

vt 0.4752226 0.9079489
vt 0.7263885 0.4665335
vt 0.4764412 0.4612184
vt 0.2264516 0.4585764
vt 0.9800907 0.2382138
vt 0.4866576 -0.176891
vt -0.01978289 0.2222996
vt 0.5590938 -0.7717922
vt 0.506705 -0.7593976
vt 0.4508828 -0.3812004
vt 0.5156646 -0.4486985
vt 0.4407533 -0.7333677
vt 0.3870866 -0.3314904
vt 0.8332022 0.00577697
vt 0.8704078 -0.03495825
vt 0.8800279 -0.04892317
vt -0.5000017 0.7987685
vt -0.2500018 0.3459148
vt -0.5000018 0.3458483
vt -0.7500018 0.3459148
vt 1.937446E-07 0.1863717
vt -0.5000008 -0.2365343
vt -0.9999998 0.1863717
vt -0.8136191 -0.2110494
vt -0.8613073 -0.2214294
vt -0.8177084 0.1558492
vt -0.7578813 0.1907528
vt -0.9127784 -0.234662
vt -0.8813561 0.08639876
vt -1.250583 0.4806613
vt -1.241131 0.494985
vt -1.204577 0.5368764
vt -0.005322866 -0.02709111
vt 0.5016072 -0.4491102
vt 0.9944816 -0.01131513
vt 0.9940643 -0.02620935
vt 0.9937105 -0.02776526
vt 0.4937213 -0.4579626
vt -0.006269861 -0.02759226
vt -0.005916121 -0.02603635
vt 0.4940751 -0.4564067

vn 0.02403497 0.7235695 -0.689833
vn 0.02411696 0.6860586 -0.7253112
vn 0.02419895 0.6485476 -0.7607893
vn 0.002828859 -0.4997439 -0.8661686
vn -0.07473589 -0.3810097 -0.9095337
vn 0.01361478 -0.264838 -0.949806
vn 0.01101965 -0.3823342 -0.9079352
vn 0.0967752 -0.3836587 -0.9063366
vn 0.01402018 -0.4999168 -0.86596
vn -0.4352287 0.7116357 0.3363511
vn -0.6547211 0.723146 0.1549619
vn -0.4765161 0.7271499 0.3360787
vn -0.1563834 0.7232013 0.6726992
vn -0.6909983 0.7111894 0.1293487
vn -0.6250446 0.7346839 0.2324413
vn -0.8829835 0.4477239 0.1410087
vn -0.8887054 0.3826633 0.2279278
vn -0.8910382 0.3053733 0.3332384
vn -0.8843509 0.2709275 0.3801603
vn -0.8893437 0.2992586 0.3424342
vn -0.8905825 0.3643054 0.2535212
vn 0 -0.5852743 0.8108354
vn 0 -0.5839101 0.8118166
vn 0 -0.5825458 0.8127978
vn -0.0002805132 0.6095724 0.7927305
vn -0.09706829 0.4173762 0.8737838
vn 6.109476E-07 0.2251803 0.9548369
vn 3.051755E-07 0.4173763 0.8737837
vn 0.09706891 0.4173764 0.8737836
vn 0.6455592 0.7028643 0.1842813
vn 0.5426956 0.727598 0.2045542
vn 0.5296381 0.7015722 0.3395807
vn 0.566191 0.7178718 0.4050776
vn 0.6053637 0.795949 -1.983624E-06
vn 0.4515797 0.7474685 0.3250888
vn 0.8930402 0.3294742 0.3064732
vn 0.8924111 0.2960155 0.3374842
vn 0.8940027 0.3113252 0.3174461
vn 0.8973075 0.3134784 0.3107583
vn 0.895113 0.3357094 0.2919216
vn 0.8925803 0.3166571 0.3160177
vn 0.6255473 -0.7475351 -0.1393526
vn -0.2347585 -0.7474377 -0.1506986
vn -0.6508697 -0.746841 -0.1363713
vn -0.6519081 -0.7541775 -0.04683916
vn -0.6524301 -0.7578489 2.758515E-06
vn 0.2174757 -0.7578499 -7.126125E-07
vn 0.6524286 -0.7578503 -2.137844E-06
vn 0.652311 -0.7577138 0.01095519
vn -0.008960237 -0.7544101 -0.04714189

usemtl Lit
f 12/31/38 4/27/40 1/32/39
f 19/26/41 4/27/40 12/31/38
f 13/30/37 19/26/41 12/31/38
f 14/29/36 19/26/41 13/30/37
f 7/24/30 4/27/33 19/26/32
f 7/24/30 19/26/32 18/25/31
f 18/25/31 19/26/32 14/29/35
f 18/25/31 14/29/35 16/28/34
f 12/15/18 11/11/20 13/16/19
f 12/15/18 10/10/21 11/11/20
f 1/14/17 10/10/21 12/15/18
f 1/14/17 2/13/16 10/10/21
f 10/10/12 8/8/10 11/11/13
f 10/10/12 9/9/11 8/8/10
f 2/13/15 9/9/11 10/10/12
f 2/13/15 5/12/14 9/9/11
f 15/19/28 17/22/27 16/21/26
f 14/18/25 15/19/28 16/21/26
f 8/23/29 17/22/27 15/19/28
f 11/20/25 8/23/29 15/19/28
f 3/3/7 5/5/5 2/2/4
f 6/6/6 5/5/5 3/3/7
f 7/7/8 3/3/7 4/4/9
f 6/6/6 3/3/7 7/7/8
f 17/38/47 18/40/49 16/39/48
f 20/41/50 18/40/49 17/38/47
f 9/36/45 6/34/43 20/41/50
f 5/35/44 6/34/43 9/36/45
f 8/37/46 20/41/50 17/38/47
f 9/36/45 20/41/50 8/37/46
f 20/41/50 7/33/42 18/40/49
f 6/34/43 7/33/42 20/41/50
f 3/3/3 2/2/2 1/1/1
f 1/1/1 4/4/2 3/3/3
f 13/17/22 11/20/23 15/19/24
f 15/19/24 14/18/23 13/17/22

